# xmcd
#
# Track frame offsets:
#	150
#	17475
#	34275
#	54975
#	69450
#	83550
#	98100
#	111825
#	129825
#	145575
#	162900
#	179700
#	200400
#	214875
#	228975
#	243525
#	257250
#	275250
#
# Disc length: 3882 seconds
#
# Revision: 1
# Processed by: cddbd v1.5.1PL2 Copyright (c) Steve Scherf et al.
# Submitted via: audiograbber 1.83.01
#
DISCID=f00f2812
DTITLE=Country Hits Monthly - Chm9611
DYEAR=1996
DGENRE=Karaoke
TTITLE0=Brooks And Dunn - Mamma Don't Get Dressed Up For Nothing (Vocal)
TTITLE1=Leann Rimes - One Way Ticket (Because I Can) (Vocal)
TTITLE2=Garth Brooks - That Ol' Wind (Vocal)
TTITLE3=Terri Clark - Poor Poor Pitiful Me (Vocal)
TTITLE4=Ricochet - Love Is Stronger Than Pride (Vocal)
TTITLE5=Trisha Yearwood - Everybody Knows (Vocal)
TTITLE6=Trace Adkins - Every Light In The House Is On (Vocal)
TTITLE7=Faith Hill - I Can't Do That Anymore (Vocal)
TTITLE8=David Kersh - Goodnight Sweetheart (Vocal)
TTITLE9=Brooks And Dunn - Mamma Don't Get Dressed Up For Nothing
TTITLE10=Leann Rimes - One Way Ticket (Because I Can)
TTITLE11=Garth Brooks - That Ol' Wind
TTITLE12=Terri Clark - Poor Poor Pitiful Me
TTITLE13=Ricochet - Love Is Stronger Than Pride
TTITLE14=Trisha Yearwood - Everybody Knows
TTITLE15=Trace Adkins - Every Light In The House Is On
TTITLE16=Faith Hill - I Can't Do That Anymore
TTITLE17=David Kersh - Goodnight Sweetheart
EXTD=
EXTT0=
EXTT1=
EXTT2=
EXTT3=
EXTT4=
EXTT5=
EXTT6=
EXTT7=
EXTT8=
EXTT9=
EXTT10=
EXTT11=
EXTT12=
EXTT13=
EXTT14=
EXTT15=
EXTT16=
EXTT17=
PLAYORDER=
